HIERARCHY
ROOT Hips
{
	OFFSET -14.64140 90.27770 -84.91600
	CHANNELS 6 Xposition Yposition Zposition Zrotation Xrotation Yrotation
	JOINT Spine
	{
		OFFSET 0.00000 13.20850 -1.60436
		CHANNELS 3 Zrotation Xrotation Yrotation
		JOINT Spine1
		{
			OFFSET 0.00000 8.61716 0.00000
			CHANNELS 3 Zrotation Xrotation Yrotation
			JOINT Spine2
			{
				OFFSET 0.00000 8.61717 0.00000
				CHANNELS 3 Zrotation Xrotation Yrotation
				JOINT Spine3
				{
					OFFSET 0.00000 8.61717 0.00000
					CHANNELS 3 Zrotation Xrotation Yrotation
					JOINT Neck
					{
						OFFSET 0.00000 11.07920 1.10792
						CHANNELS 3 Zrotation Xrotation Yrotation
						JOINT Neck1
						{
							OFFSET 0.00000 7.08032 0.00000
							CHANNELS 3 Zrotation Xrotation Yrotation
							JOINT Head
							{
								OFFSET 0.00000 7.08031 0.00000
								CHANNELS 3 Zrotation Xrotation Yrotation
								End site
								{
									OFFSET 0.00000 0.00000 0.00000
								}
							}
						}
					}
					JOINT RightShoulder
					{
						OFFSET -0.01000 7.91373 5.19711
						CHANNELS 3 Zrotation Xrotation Yrotation
						JOINT RightArm
						{
							OFFSET -18.41580 0.00000 0.00000
							CHANNELS 3 Zrotation Xrotation Yrotation
							JOINT RightForeArm
							{
								OFFSET -29.11090 0.00000 0.00000
								CHANNELS 3 Zrotation Xrotation Yrotation
								JOINT RightHand
								{
									OFFSET -24.65040 0.00000 0.00000
									CHANNELS 3 Zrotation Xrotation Yrotation
									JOINT RightHandThumb1
									{
										OFFSET -5.35114 -0.85590 3.97906
										CHANNELS 3 Zrotation Xrotation Yrotation
										JOINT RightHandThumb2
										{
											OFFSET -4.52789 0.00000 0.00000
											CHANNELS 3 Zrotation Xrotation Yrotation
											JOINT RightHandThumb3
											{
												OFFSET -2.46976 0.00000 0.00000
												CHANNELS 3 Zrotation Xrotation Yrotation
												End site
												{
													OFFSET 0.00000 0.00000 0.00000
												}
											}
										}
									}
									JOINT RightHandIndex1
									{
										OFFSET -14.26970 0.00000 2.88139
										CHANNELS 3 Zrotation Xrotation Yrotation
										JOINT RightHandIndex2
										{
											OFFSET -5.48836 0.00000 0.00000
											CHANNELS 3 Zrotation Xrotation Yrotation
											JOINT RightHandIndex3
											{
												OFFSET -3.01859 0.00000 0.00000
												CHANNELS 3 Zrotation Xrotation Yrotation
												End site
												{
													OFFSET 0.00000 0.00000 0.00000
												}
											}
										}
									}
									JOINT RightHandMiddle1
									{
										OFFSET -14.26970 0.00000 -0.09147
										CHANNELS 3 Zrotation Xrotation Yrotation
										JOINT RightHandMiddle2
										{
											OFFSET -6.17441 0.00000 0.00000
											CHANNELS 3 Zrotation Xrotation Yrotation
											JOINT RightHandMiddle3
											{
												OFFSET -3.56743 0.00000 0.00000
												CHANNELS 3 Zrotation Xrotation Yrotation
												End site
												{
													OFFSET 0.00000 0.00000 0.00000
												}
											}
										}
									}
									JOINT RightHandRing1
									{
										OFFSET -12.69180 0.00000 -3.06433
										CHANNELS 3 Zrotation Xrotation Yrotation
										JOINT RightHandRing2
										{
											OFFSET -5.62556 0.00000 0.00000
											CHANNELS 3 Zrotation Xrotation Yrotation
											JOINT RightHandRing3
											{
												OFFSET -3.56744 0.00000 0.00000
												CHANNELS 3 Zrotation Xrotation Yrotation
												End site
												{
													OFFSET 0.00000 0.00000 0.00000
												}
											}
										}
									}
									JOINT RightHandPinky1
									{
										OFFSET -11.11390 0.00000 -6.03719
										CHANNELS 3 Zrotation Xrotation Yrotation
										JOINT RightHandPinky2
										{
											OFFSET -4.52789 0.00000 0.00000
											CHANNELS 3 Zrotation Xrotation Yrotation
											JOINT RightHandPinky3
											{
												OFFSET -2.46976 0.00000 0.00000
												CHANNELS 3 Zrotation Xrotation Yrotation
												End site
												{
													OFFSET 0.00000 0.00000 0.00000
												}
											}
										}
									}
								}
							}
						}
					}
					JOINT LeftShoulder
					{
						OFFSET 0.01000 7.91373 5.19711
						CHANNELS 3 Zrotation Xrotation Yrotation
						JOINT LeftArm
						{
							OFFSET 18.41580 0.00000 0.00000
							CHANNELS 3 Zrotation Xrotation Yrotation
							JOINT LeftForeArm
							{
								OFFSET 29.11090 0.00000 0.00000
								CHANNELS 3 Zrotation Xrotation Yrotation
								JOINT LeftHand
								{
									OFFSET 24.65040 0.00000 0.00000
									CHANNELS 3 Zrotation Xrotation Yrotation
									JOINT LeftHandThumb1
									{
										OFFSET 5.35114 -0.85590 3.97906
										CHANNELS 3 Zrotation Xrotation Yrotation
										JOINT LeftHandThumb2
										{
											OFFSET 4.52789 0.00000 0.00000
											CHANNELS 3 Zrotation Xrotation Yrotation
											JOINT LeftHandThumb3
											{
												OFFSET 2.46977 0.00000 0.00000
												CHANNELS 3 Zrotation Xrotation Yrotation
												End site
												{
													OFFSET 0.00000 0.00000 0.00000
												}
											}
										}
									}
									JOINT LeftHandIndex1
									{
										OFFSET 14.26970 0.00000 2.88139
										CHANNELS 3 Zrotation Xrotation Yrotation
										JOINT LeftHandIndex2
										{
											OFFSET 5.48836 0.00000 0.00000
											CHANNELS 3 Zrotation Xrotation Yrotation
											JOINT LeftHandIndex3
											{
												OFFSET 3.01859 0.00000 0.00000
												CHANNELS 3 Zrotation Xrotation Yrotation
												End site
												{
													OFFSET 0.00000 0.00000 0.00000
												}
											}
										}
									}
									JOINT LeftHandMiddle1
									{
										OFFSET 14.26970 0.00000 -0.09147
										CHANNELS 3 Zrotation Xrotation Yrotation
										JOINT LeftHandMiddle2
										{
											OFFSET 6.17440 0.00000 0.00000
											CHANNELS 3 Zrotation Xrotation Yrotation
											JOINT LeftHandMiddle3
											{
												OFFSET 3.56744 0.00000 0.00000
												CHANNELS 3 Zrotation Xrotation Yrotation
												End site
												{
													OFFSET 0.00000 0.00000 0.00000
												}
											}
										}
									}
									JOINT LeftHandRing1
									{
										OFFSET 12.69180 0.00000 -3.06433
										CHANNELS 3 Zrotation Xrotation Yrotation
										JOINT LeftHandRing2
										{
											OFFSET 5.62556 0.00000 0.00000
											CHANNELS 3 Zrotation Xrotation Yrotation
											JOINT LeftHandRing3
											{
												OFFSET 3.56744 0.00000 0.00000
												CHANNELS 3 Zrotation Xrotation Yrotation
												End site
												{
													OFFSET 0.00000 0.00000 0.00000
												}
											}
										}
									}
									JOINT LeftHandPinky1
									{
										OFFSET 11.11390 0.00000 -6.03719
										CHANNELS 3 Zrotation Xrotation Yrotation
										JOINT LeftHandPinky2
										{
											OFFSET 4.52789 0.00000 0.00000
											CHANNELS 3 Zrotation Xrotation Yrotation
											JOINT LeftHandPinky3
											{
												OFFSET 2.46976 0.00000 0.00000
												CHANNELS 3 Zrotation Xrotation Yrotation
												End site
												{
													OFFSET 0.00000 0.00000 0.00000
												}
											}
										}
									}
								}
							}
						}
					}
					JOINT pCube4
					{
						OFFSET 0.00000 10.91090 1.10792
						CHANNELS 3 Zrotation Xrotation Yrotation
						End site
						{
							OFFSET 0.00000 0.00000 0.00000
						}
					}
				}
			}
		}
	}
	JOINT RightUpLeg
	{
		OFFSET -9.98441 0.00000 0.00000
		CHANNELS 3 Zrotation Xrotation Yrotation
		JOINT RightLeg
		{
			OFFSET 0.00000 -42.11790 0.00000
			CHANNELS 3 Zrotation Xrotation Yrotation
			JOINT RightFoot
			{
				OFFSET 0.00000 -45.00020 -0.00001
				CHANNELS 3 Zrotation Xrotation Yrotation
				JOINT RightForeFoot
				{
					OFFSET 0.00000 -3.74820 0.00000
					CHANNELS 3 Zrotation Xrotation Yrotation
					JOINT RightToeBase
					{
						OFFSET 0.00000 0.06325 14.43120
						CHANNELS 3 Zrotation Xrotation Yrotation
						End site
						{
							OFFSET 0.00000 0.00000 0.00000
						}
					}
				}
			}
		}
	}
	JOINT LeftUpLeg
	{
		OFFSET 9.98441 0.00000 0.00000
		CHANNELS 3 Zrotation Xrotation Yrotation
		JOINT LeftLeg
		{
			OFFSET 0.00000 -42.11800 0.00000
			CHANNELS 3 Zrotation Xrotation Yrotation
			JOINT LeftFoot
			{
				OFFSET 0.00000 -45.00070 0.00000
				CHANNELS 3 Zrotation Xrotation Yrotation
				JOINT LeftForeFoot
				{
					OFFSET 0.00000 -3.74824 0.00000
					CHANNELS 3 Zrotation Xrotation Yrotation
					JOINT LeftToeBase
					{
						OFFSET 0.00000 0.06325 14.43110
						CHANNELS 3 Zrotation Xrotation Yrotation
						End site
						{
							OFFSET 0.00000 0.00000 0.00000
						}
					}
				}
			}
		}
	}
}
MOTION
Frames: 4
Frame Time: 0.050000
0.014028540117763262 -0.004514824371210257 0.03184549529714431 0.03787978329625835 0.022282867410324342 0.03409288856146683 -3.147368523689382 -0.6716967450701732 -0.6559606835902074 -0.9755423530930099 3.630634723166495 0.3390301381899203 -1.1977818582658097 -2.2155772148714314 -1.3632616596091842 -0.019908652535765924 0.22812294380365591 -0.919868987127538 -0.6461567178330563 13.293102911596062 1.7886766508498626 -0.09180324899373846 0.95822603508381 2.4868546375722804 -0.641500307598259 -13.033063945825958 0.2538406684811124 -4.837733176115813 1.7046384938633061 -13.876311058331828 66.72307409426139 11.217503776980394 15.260614507105165 27.19611769312851 -0.9608880406938347 83.81245047040073 16.511793224845558 -0.41566995402036067 -3.184260400634827 4.572985426792371 -0.14148001713109343 -1.628974061903396 -0.02644080489440887 0.026152134349909192 -56.19215393138578 -0.04759265547557092 0.008997249182603464 -56.25843817793115 -38.77389665741299 -0.02002691643619493 0.010538560242241897 -0.0066766123607403995 -0.013652155818508385 0.017077205960650592 -0.0009141457999441073 0.009697109298692252 0.002420665579835165 -36.68627114679056 0.034637898407492866 -0.017511159382576837 -0.017740868219247523 0.04469191340245295 -0.005650147711180518 0.00770017901663776 0.0016920144510099659 -0.0031321220931799284 -19.7582974697302 -0.019085355225829503 -0.0026740402505874535 0.01013829912369582 0.04332749357215392 -0.0019400646341102329 0.026879399521300067 0.03281331725662365 -0.03464182740716268 24.05656596755831 -0.020658394050493252 -0.026012124067187958 28.901859809135928 0.015486046523117714 0.049240511584032226 28.896234321538383 -0.02185911674837289 -0.010981922460688399 7.297241931654152 1.5124945753603707 12.73953639047735 -67.93434912637703 5.665230662193357 -17.99500073086833 -22.24602818667829 -15.233464212605082 -49.10811805746317 -3.7445453898948515 -0.3662724232861994 0.04869447667831604 -0.4419129004121201 0.04690070046702284 -8.13056139906595 0.049032992807492584 0.008620383214634045 44.59269868853367 -0.014300123826574503 -0.004751719303692287 44.55516720666525 12.450090933333188 -0.004652242875727242 -0.010307449395567884 0.0065979878173621645 0.026643575658136902 0.016822872502913772 0.007579792201735106 0.03941733847704477 -0.006213635070495339 11.145870941326347 0.020148127889944255 -0.03741069579140427 -0.035263310002350876 0.011625793659390593 0.021624510719920994 -0.021694777407936766 -0.017053198888032965 -0.006781456548123752 4.764124194427552 -0.044466707603406264 0.04333881929922541 -0.028571506199419536 -0.012410764533935977 0.03374027727469666 -0.02795285774818301 -0.028905545167592733 0.017230609493714744 -5.557126205397995 0.04040393611336532 0.020069887489314323 -6.697608617952951 0.02797677272149685 0.0029678244405562607 -6.755295749924518 0.011047180939282883 -0.0412804759307295 -0.012499866423054819 -0.016371264080914404 0.010479929149152746 8.060371703100477 3.529716566296184 -19.20972448740187 -0.0022701223645666306 10.376480100941608 0.0606007280211249 -5.627890234788382 -15.701408849671312 3.2156457530121805 -0.04663767734120104 0.009701101250713927 -0.022901700503940782 0.04590512962475902 4.6836797408289845 -0.003743563201667934 12.456396338235391 -8.22721228774629 6.892682824192859 -0.040853671050513005 46.33581964255689 -0.027593361309924302 -4.359381378052919 -14.749416120453999 -3.871523866179258 0.00320217722786621 -0.01928035447986379 -0.008633106397422074 0.02142606032997473 -10.762104952459074 -0.030131823008353445 
-0.01440012345114377 -0.003297586031859535 0.015868583508911068 0.043587339933021975 -0.02749877828526703 -0.027035988545368442 -2.937945183106341 -0.7100924007046543 -0.778696278367688 -1.0451282878144605 3.591052696842139 0.40772205419890273 -1.1998846561131353 -2.189945486669593 -1.855604933708274 0.13253096997927855 0.19629940248505995 -0.9512167865937343 -0.7508603725108036 13.074110995517229 1.9962055577480229 -0.15169156150368154 0.7360119294843626 3.142342513443533 -0.7928330562932188 -13.442521837598665 0.3142525949182201 -4.73314739745333 1.653264287198713 -14.285664188652932 67.0602695298833 9.581550696022925 12.224104241319292 28.679809113558925 -1.4369482723411773 85.91342534729351 15.915702743827532 -0.48026395402056066 -3.008011764960918 4.546645409451563 -0.15031398328021128 -1.582308974631422 0.046171784590178476 -0.01086328958084648 -56.228740493982514 0.02864315803251283 0.00038292044579798357 -56.254421136991404 -38.76248964215939 -0.013458979356680311 0.029092421888143996 -0.02777732441141077 -0.038660732998049216 0.006694145375900936 -0.017362135584685794 -0.03959944410779901 -0.002237635756811324 -36.73792588590371 -0.03253031299832052 -0.03349227366023203 -0.031301667726101406 -0.04725083125407969 0.02687916603159155 -0.007573465747882986 0.027492048719361808 0.04172583189575503 -19.80632492591826 -0.001927335663829812 -0.0165557515362133 -0.013081532390580838 0.021677843483598018 -0.011922844065189037 0.03259443931528163 -0.03179678490633567 0.03867713417880877 24.04391366552214 0.02789585204357657 0.007874996833166928 28.819982782533927 -0.04696509096405302 -0.013267869382231057 28.881355432209666 -0.022382597025311445 0.040381915166324216 7.802144504459664 1.5851316309929626 12.738551191192219 -68.4588639832684 2.416566374495965 -18.76528653915979 -24.045940584038508 -15.515941916066755 -50.363216812836484 -1.7314129585920206 -0.2617111672969557 -0.44840630212240296 -0.48004062475323267 0.06994423712241717 -8.083581939547829 0.0004758748397514875 0.02896431289762477 44.533206036520895 -0.006461502022495665 -0.03078674165148932 44.59836813645708 12.502294387633079 0.02960517409162615 0.02464212167397468 0.0026383920518293926 -0.02727005076269757 -0.007397420461514101 0.030510943685155657 0.006814691186541373 -0.03208703765030254 11.109853292936133 -0.005276078751796487 -0.03840185285773682 0.017528720186916764 -0.028658890998944187 -0.03241739741416115 -0.04238339336423982 -0.012333451666349965 0.03378128871987532 4.771418675381988 -0.0314021189372316 -0.00255423429887589 0.023421202169169302 -0.03802294814734892 0.004530492215986455 -0.011099547312589084 0.017753109414757738 -0.046612419179068554 -5.605733425742477 -0.04660313432971015 -0.01890177586926481 -6.74083020587587 0.03812114940639749 -0.03874210989654443 -6.70243893314908 -0.002580668358115817 0.009559833222049466 -0.013114068896025075 0.014612135021094095 0.020018246898286407 8.064635692471157 3.4594253602978453 -19.19437196268536 -0.02853469975559262 10.425313802091368 0.03836939490582104 -5.6535799033789225 -15.678825652837823 3.217696297208488 -0.04503313376064676 0.025137886228279935 -0.011495135954770691 -0.0054706059958648445 4.745805589643041 0.0002486801259896587 12.435633485183569 -8.247877911593262 6.903973301039736 -0.04136425741210206 46.38076264209678 0.04606536705142873 -4.296784395234045 -14.74498508392969 -3.8421605273547814 -0.024371212232498034 0.01732370274036989 -0.04512343188819571 0.02865091010219273 -10.70892516187273 -0.029231445643168624 
0.025485503232972512 0.02416071244894422 0.00048341812493425755 0.021074007957106553 0.0013817230751280128 -0.00117655190140042 -2.7478543216333726 -0.6807453118684934 -0.8366372495667125 -1.0502778557142531 3.5735170715803224 0.3524025152774388 -1.1443995079376408 -2.142621360922137 -2.2170222519643175 0.19284183651386222 0.23677517159715458 -0.954421893434993 -0.8592716880373622 12.91248642706853 2.0693033721708654 -0.2831991535552385 0.4768657230989623 3.7168084805980306 -0.8538947848595696 -13.796669674268598 0.3600957635868646 -4.653245602803811 1.6473806408843124 -14.716362585126669 67.70682781375433 8.45633722937143 9.145836275849037 29.28338496307425 -2.1690229855955154 87.97610544894799 15.575898425905912 -0.41793017172421243 -2.9467913590442603 4.529362002221745 -0.17567346929059463 -1.553643492482559 -0.018108479127815585 -0.006135023278306432 -56.21647521731852 -0.03641546397914515 -0.019085277761920778 -56.254665409158136 -38.77919994530678 -0.02079297070160232 -0.0350157866506267 0.041888682283327434 -0.046067162429592856 0.036707815309817114 -0.010167443769108797 -0.03497610750036852 -0.023743424152850856 -36.71648058467621 -0.018060593632146234 -0.013537139315772606 0.002526848784017207 0.013988446410922825 -0.011474105736735598 -0.027496660345439957 0.03805665932781805 0.015701720142397853 -19.713337440643276 -0.03335753646859375 0.03947894455589969 0.04392404402414372 0.01589128242113097 -0.03888488046037045 -0.0054424400070312105 -0.021553598408806864 0.019100136753469 24.03720011464199 -0.04082578851001099 0.025646600563636827 28.871197766395298 0.01390670506490891 -0.043878029082109846 28.85178487964583 -0.012080166850533876 -0.01614396281393952 8.087479038101842 1.647079373197514 12.78137917708482 -69.34500158144712 0.8913008903875479 -18.2954017169771 -25.536019045121947 -15.266347823302368 -51.86538571204198 -0.26196827541007284 -0.2146227757145761 -0.7322663391355204 -0.46067108211339536 0.03471112611099427 -8.12773489154942 -0.022195845905824442 0.020979037151504367 44.539340744926264 -0.011202383435110553 -0.021874602157788057 44.55393488055093 12.468603363809052 -0.03139420124150637 -0.009258447882477166 0.012388449899434342 0.024097026729816926 0.011145710545336451 0.024196768531929914 0.012046603429593261 0.013204138458629305 11.108804298898779 0.011845920717129676 -0.006338886552853032 0.03477698505670062 0.000674264544393934 0.028047783185634056 -0.011188730323393004 -0.01051360613281067 0.009918143788197479 4.8027831855064935 -0.011719615386970432 -0.03246833122169491 0.03759161540106224 0.0167605074918599 -0.034673619206982066 -0.045801115654171366 0.016869348886312512 0.006283544475526567 -5.571238050267758 -0.031434054068802515 0.00020304904138793481 -6.754081402608357 -0.01546331350802813 0.03424754821966743 -6.736402755668354 -0.04209814492086839 -0.002498043359149546 0.012045293011058729 -0.02881559353144063 -0.01594242392714147 8.068692966416705 3.5383944334115967 -19.22912169809253 0.0022903214291321084 10.359699601544287 0.054099228141153616 -5.650068620642951 -15.619676973742438 3.2324467284205634 -0.03636631849714254 -0.020258115901511838 0.00015357473652753052 0.0018591387898999182 4.688085008961609 -0.02265067355133706 12.483390361745316 -8.251732998294584 6.901735879295065 -0.046675828873432516 46.374756679194235 0.008795845450586991 -4.307472679728268 -14.772218722342293 -3.8167894707393084 0.01789915653448834 -0.043251115805936755 0.04126893216623897 -0.018366580415040266 -10.72826611511777 0.008149670630702672 
-0.021219928255008142 0.04023822777136686 -0.036680220146429146 -0.02203765873510137 0.014134169346211811 -0.03244735026678718 -2.629310858362455 -0.6162012572893413 -0.8435606470400184 -1.0905195899277607 3.5911778321231895 0.3453446453118756 -1.135685751262906 -2.1104608127531383 -2.4043192245837526 0.28102630795243205 0.21423056665339354 -1.028744214885111 -0.8784477501852512 12.678717166817853 2.130352281784855 -0.2792748399252792 0.33427271455946506 4.066071649929943 -0.920506187223556 -14.260679645188384 0.3675690064672729 -4.604107729611485 1.6205463269239522 -15.092688235835512 68.47427608035666 8.231843039365582 6.239064151155277 28.5789268807898 -2.624321731498783 89.28073257633748 15.525400889412714 -0.45163850966607955 -2.89236121268659 4.5175301647764625 -0.12807097951359206 -1.5758875845629203 -0.01048432481036837 0.008245501864598322 -56.205991437213626 -0.03909865880525825 -0.045039605242690066 -56.23277603634047 -38.727658224319704 0.007265096568659979 0.03283243655162535 0.028934752303561444 -0.04285465157523861 0.02168079038278426 0.010598104560341888 0.025052368274533093 0.047898951725012705 -36.69594603498832 0.02546334576817111 -0.013104612240852428 -0.01040323598961233 -0.016462054019645185 -0.040881334677268434 -0.03650082177979753 -0.012197507232104207 -0.03853246300820941 -19.73571496704361 -0.005096331698611125 0.027670488499250166 0.001134284183344992 0.0351912094702435 0.017037357783565837 -0.028501272938848445 0.032002446600582025 0.04757131032405942 24.034914364492394 0.04580107654246626 -0.015596129080469 28.879350890983424 0.029362967992155754 0.04605861967444847 28.874898023681414 -0.009052727220915588 -0.012312138434185441 8.080346494641317 1.7034936363862876 12.927794133045598 -70.4806049759903 1.2478025306793865 -16.787905550613303 -26.769264654623214 -14.240876894792908 -53.46626928712066 0.4859248588104285 -0.09163029381366883 -0.9853017691890951 -0.45623743332628525 0.11380660510362346 -8.09120635422502 -0.0129855544846034 0.02180401192070143 44.6094701515772 -0.03906689055793509 0.034945955448823326 44.58871731243063 12.420696582423965 0.031273732023040235 0.0031744259451462055 0.02198072925253938 0.026921066242794677 0.0008852192716597447 -0.02063411078387681 0.0015038415545860957 0.033081286632788864 11.08040590089187 -0.0031918019588391376 0.002998343441447142 -0.01985214246915111 0.004860922965046952 -0.023297790981774813 0.01888307172322512 -0.028143478232661907 0.022800529102073065 4.7788177863474415 0.013482560679008269 0.031108493313639764 -0.035607784220049635 0.014865023511889525 0.008659427557170982 -0.013656585487634152 -0.03158061276931739 0.007718604076302986 -5.650443040530075 -0.014058813993905316 0.012457512759089951 -6.710549553237684 0.04382737523348462 0.002535519823851306 -6.701359088819768 -0.0201883361116783 0.03027287019569804 0.02988609000584802 0.0025984628532749877 -0.012693639606417952 8.00291667684161 3.492914557694804 -19.23778775538491 0.023478095468624564 10.379058316082775 0.0278333752365231 -5.580225754127912 -15.708174018413978 3.2008736824323503 0.0012312216040561502 0.02642171103045401 -0.0029940490032825365 -0.036109323090898836 4.722803523050188 -0.0038012586862551804 12.438058769263323 -8.285190188793582 6.924924353503975 -0.013914082234292859 46.34018700794811 0.041123144049146555 -4.362322120315492 -14.735490876126143 -3.8715328256409722 0.01383838605538509 -0.0037281184940057333 -0.019538570149142665 0.03128670229140206 -10.792459268893067 0.03155653097522401 
